<?xml version="1.0" standalone="no"?>
<!DOCTYPE svg PUBLIC "-//W3C//DTD SVG 20010904//EN"
 "http://www.w3.org/TR/2001/REC-SVG-20010904/DTD/svg10.dtd">
<svg version="1.0" xmlns="http://www.w3.org/2000/svg"
 width="256.000000pt" height="256.000000pt" viewBox="0 0 256.000000 256.000000"
 preserveAspectRatio="xMidYMid meet">
<metadata>
Created by potrace 1.14, written by Peter Selinger 2001-2017
</metadata>
<g transform="translate(0.000000,256.000000) scale(0.100000,-0.100000)"
fill="#000000" stroke="none">
<path d="M1140 2553 c-194 -21 -407 -100 -580 -216 -96 -64 -273 -241 -337
-337 -296 -442 -296 -998 0 -1440 64 -96 241 -273 337 -337 442 -296 998 -296
1440 0 96 64 273 241 337 337 296 442 296 998 0 1440 -64 96 -241 273 -337
337 -252 169 -566 248 -860 216z m206 -262 c32 -20 64 -74 64 -111 0 -31 -29
-89 -51 -101 -17 -8 -19 -22 -19 -114 0 -58 2 -105 3 -105 2 0 28 13 58 30 30
16 65 30 78 30 33 0 61 -27 61 -61 0 -32 -24 -52 -132 -114 l-68 -39 0 -81 0
-81 66 -39 67 -39 41 22 c22 12 56 31 74 42 l32 20 0 103 c0 121 11 147 65
147 48 0 65 -28 65 -108 l0 -64 83 45 c73 40 85 50 107 96 28 56 49 75 97 86
87 18 165 -61 149 -150 -13 -70 -98 -120 -164 -97 -25 9 -39 4 -115 -40 -48
-28 -84 -54 -81 -59 3 -5 23 -18 44 -29 53 -27 70 -47 70 -80 0 -36 -24 -60
-58 -60 -15 0 -65 23 -111 50 l-85 49 -55 -31 c-31 -17 -64 -36 -73 -42 -15
-9 -18 -25 -18 -86 0 -61 3 -77 18 -86 9 -6 42 -24 72 -42 l55 -31 85 49 c47
27 97 50 112 50 34 0 58 -24 58 -60 0 -33 -17 -53 -70 -80 -21 -11 -41 -24
-44 -29 -3 -5 33 -31 81 -59 76 -44 90 -49 115 -40 42 15 93 1 127 -33 101
-100 -10 -262 -139 -204 -44 20 -64 45 -74 90 -6 26 -20 38 -96 79 l-90 47 0
-65 c0 -76 -20 -106 -69 -106 -49 0 -61 29 -61 147 l0 103 -32 20 c-18 11 -51
30 -73 41 l-41 22 -67 -39 -67 -38 0 -82 0 -82 68 -37 c132 -74 153 -101 116
-153 -21 -31 -63 -28 -124 8 -28 17 -53 30 -55 30 -3 0 -5 -45 -5 -101 0 -98
1 -101 30 -130 69 -69 37 -192 -57 -215 -66 -17 -145 34 -157 100 -8 40 10 91
43 120 18 17 21 30 21 100 0 45 -3 90 -6 102 -6 21 -6 21 -60 -8 -65 -35 -102
-34 -123 4 -24 43 -4 69 99 128 l91 52 -3 85 -3 85 -65 36 -65 36 -73 -43 -72
-42 0 -102 c0 -117 -12 -147 -59 -147 -50 0 -65 20 -69 99 -2 39 -6 71 -8 71
-2 0 -41 -22 -88 -50 -62 -37 -85 -56 -90 -76 -15 -59 -71 -104 -128 -104 -37
0 -90 34 -110 71 -52 93 42 209 146 181 31 -9 42 -5 126 43 l91 52 -48 28
c-26 15 -56 35 -65 43 -38 33 -10 102 41 102 14 0 64 -22 111 -49 l85 -49 70
38 70 39 0 82 0 81 -70 38 -70 38 -85 -49 c-91 -52 -122 -59 -152 -32 -32 29
-23 69 23 103 23 16 50 32 61 35 31 10 17 25 -71 75 -76 44 -85 47 -123 38
-76 -17 -158 47 -158 122 0 32 28 87 54 103 79 52 179 15 201 -76 6 -21 28
-40 91 -77 47 -28 86 -50 88 -50 2 0 6 32 8 71 4 77 19 99 67 99 51 0 61 -23
61 -141 l0 -108 72 -42 73 -43 65 36 65 36 3 85 3 85 -83 47 c-46 26 -91 54
-100 63 -37 32 -9 102 40 102 15 0 50 -13 79 -29 51 -28 51 -28 57 -7 3 11 6
57 6 101 0 74 -2 81 -30 110 -59 61 -44 157 31 197 43 23 86 23 125 -1z"/>
<path d="M1257 2204 c-10 -11 -9 -42 3 -49 20 -12 51 6 48 28 -3 22 -36 35
-51 21z"/>
<path d="M474 1746 c-10 -26 4 -48 28 -44 17 2 23 10 23 28 0 18 -6 26 -23 28
-13 2 -25 -3 -28 -12z"/>
<path d="M2034 1746 c-10 -26 4 -48 28 -44 17 2 23 10 23 28 0 18 -6 26 -23
28 -13 2 -25 -3 -28 -12z"/>
<path d="M1213 1391 l-63 -36 0 -75 0 -75 64 -36 63 -36 67 35 66 35 0 77 0
78 -67 34 -68 35 -62 -36z"/>
<path d="M474 845 c-9 -23 3 -45 25 -45 25 0 34 14 26 40 -7 23 -43 27 -51 5z"/>
<path d="M2034 846 c-10 -26 4 -48 28 -44 17 2 23 10 23 28 0 18 -6 26 -23 28
-13 2 -25 -3 -28 -12z"/>
<path d="M1254 395 c-9 -23 3 -45 25 -45 25 0 34 14 26 40 -7 23 -43 27 -51 5z"/>
</g>
</svg>
